<svg xmlns="http://www.w3.org/2000/svg" viewBox="0 0 128 128">
  <g fill="#000">
    <!-- Barbell -->
    <rect x="8" y="24" width="112" height="6" rx="3"/>
    <rect x="2" y="18" width="6" height="18" rx="2"/>
    <rect x="120" y="18" width="6" height="18" rx="2"/>

    <!-- Bench -->
    <rect x="28" y="72" width="72" height="8" rx="4"/>
    <rect x="34" y="80" width="8" height="26"/>
    <rect x="86" y="80" width="8" height="26"/>

    <!-- Head -->
    <circle cx="64" cy="44" r="6"/>

    <!-- Body (lying) -->
    <rect x="52" y="50" width="24" height="18" rx="9"/>

    <!-- Arms -->
    <rect x="42" y="32" width="10" height="20" rx="5"/>
    <rect x="76" y="32" width="10" height="20" rx="5"/>

    <!-- Hands gripping bar -->
    <rect x="40" y="24" width="14" height="6" rx="3"/>
    <rect x="74" y="24" width="14" height="6" rx="3"/>

    <!-- Legs -->
    <rect x="50" y="68" width="10" height="28" rx="5"/>
    <rect x="68" y="68" width="10" height="28" rx="5"/>
  </g>
</svg>